<mxfile host="app.diagrams.net" modified="2023-08-11T00:05:12.316Z" agent="Mozilla/5.0 (Windows NT 10.0; Win64; x64) AppleWebKit/537.36 (KHTML, like Gecko) Chrome/115.0.0.0 Safari/537.36" version="21.6.6" etag="IEZv-jG8CWqmSuWha3R4" type="github">
  <diagram name="Page-1" id="HJ9jNkHiMD2bMJOVGWQ4">
    <mxGraphModel>
      <root>
        <mxCell id="0" />
        <mxCell id="1" parent="0" />
      </root>
    </mxGraphModel>
  </diagram>
</mxfile>
